<svg xmlns="http://www.w3.org/2000/svg" viewBox="0 0 920 500" width="920" height="500" role="img" aria-labelledby="t d"><title id="t">P1's ratio to ΛCDM at MIT's two radii</title><desc id="d">R_l = C_l(P1)/C_l(LambdaCDM) at routes A and B from the frozen computation, beside the two estimates recorded before v1's freeze; the band marks R_l within 10 percent of 1. Theory only, no data.</desc>
<style>
svg { --surface: #fcfcfb; --ink: #0b0b0b; --ink2: #52514e; --muted: #898781; --grid: #e1e0d9; --axis: #c3c2b7; --band: #f0efec; --a: #2a78d6; --b: #eb6834; font-family: system-ui, -apple-system, 'Segoe UI', sans-serif }
@media (prefers-color-scheme: dark) { svg { --surface: #1a1a19; --ink: #ffffff; --ink2: #c3c2b7; --muted: #898781; --grid: #2c2c2a; --axis: #383835; --band: #383835; --a: #3987e5; --b: #d95926 } }
.bg { fill: #fcfcfb; fill: var(--surface) }
.grid { stroke: #e1e0d9; stroke: var(--grid); stroke-width: 1; shape-rendering: crispEdges }
.axis { stroke: #c3c2b7; stroke: var(--axis); stroke-width: 1; shape-rendering: crispEdges }
.band { fill: #e1e0d9; fill: var(--grid) }
.t1 { fill: #0b0b0b; fill: var(--ink); font-size: 15px; font-weight: 600 }
.t2 { fill: #52514e; fill: var(--ink2); font-size: 12px }
.tm { fill: #898781; fill: var(--muted); font-size: 11px; font-variant-numeric: tabular-nums }
.l-lcdm { stroke: #52514e; stroke: var(--ink2); fill: none; stroke-width: 2; stroke-linejoin: round; stroke-linecap: round }
.l-A { stroke: #2a78d6; stroke: var(--a); fill: none; stroke-width: 2; stroke-linejoin: round; stroke-linecap: round }
.l-B { stroke: #eb6834; stroke: var(--b); fill: none; stroke-width: 2; stroke-linejoin: round; stroke-linecap: round }
.m-lcdm { fill: #52514e; fill: var(--ink2); stroke: #fcfcfb; stroke: var(--surface); stroke-width: 2 }
.m-A { fill: #2a78d6; fill: var(--a); stroke: #fcfcfb; stroke: var(--surface); stroke-width: 2 }
.m-B { fill: #eb6834; fill: var(--b); stroke: #fcfcfb; stroke: var(--surface); stroke-width: 2 }
.o-A { fill: #fcfcfb; fill: var(--surface); stroke: #2a78d6; stroke: var(--a); stroke-width: 1.5 }
.o-B { fill: #fcfcfb; fill: var(--surface); stroke: #eb6834; stroke: var(--b); stroke-width: 1.5 }
.k-line { stroke: #52514e; stroke: var(--ink2); fill: none; stroke-width: 2; stroke-linejoin: round; stroke-linecap: round }
.k-dot { fill: #52514e; fill: var(--ink2); stroke: #fcfcfb; stroke: var(--surface); stroke-width: 2 }
.k-open { fill: #fcfcfb; fill: var(--surface); stroke: #52514e; stroke: var(--ink2); stroke-width: 1.5 }
</style>
<rect class="bg" width="920" height="500"/>
<text class="t1" x="24" y="32">P1's ratio to ΛCDM at MIT's two radii</text>
<text class="t2" x="24" y="52">R_ℓ = C_ℓ(P1)/C_ℓ(ΛCDM) from one transfer run, beside the two estimates made before v1’s freeze; theory only, no data</text>
<line class="k-line" x1="24" x2="46" y1="80" y2="80"/>
<circle class="k-dot" cx="35" cy="80" r="4"/>
<text class="t2" x="54" y="84">full transfer</text>
<circle class="k-open" cx="164.2" cy="80" r="4"/>
<text class="t2" x="175.2" y="84">Sachs-Wolfe estimate</text>
<path class="k-open" d="M330.2,75 L334.8,83 L325.59999999999997,83 Z"/>
<text class="t2" x="341.2" y="84">with the integrated term, ℓ ≤ 10</text>
<rect class="band" x="568.0" y="74" width="18" height="12"/>
<text class="t2" x="594.0" y="84">within 10% of ΛCDM</text>
<text class="t1" x="72.0" y="112.0">Route A, R = 6130 Mpc</text>
<rect class="band" x="72.0" y="209.3" width="372.0" height="6.7"/>
<line class="grid" x1="72.0" x2="444.0" y1="442.0" y2="442.0"/>
<text class="tm" x="64.0" y="446.0" text-anchor="end">0.001</text>
<line class="grid" x1="72.0" x2="444.0" y1="365.5" y2="365.5"/>
<text class="tm" x="64.0" y="369.5" text-anchor="end">0.01</text>
<line class="grid" x1="72.0" x2="444.0" y1="289.0" y2="289.0"/>
<text class="tm" x="64.0" y="293.0" text-anchor="end">0.1</text>
<line class="grid" x1="72.0" x2="444.0" y1="212.5" y2="212.5"/>
<text class="tm" x="64.0" y="216.5" text-anchor="end">1</text>
<line class="grid" x1="72.0" x2="444.0" y1="136.0" y2="136.0"/>
<text class="tm" x="64.0" y="140.0" text-anchor="end">10</text>
<line class="axis" x1="72.0" x2="444.0" y1="442.0" y2="442.0"/>
<text class="tm" x="72.0" y="460.0" text-anchor="middle">2</text>
<text class="tm" x="113.3" y="460.0" text-anchor="middle">5</text>
<text class="tm" x="182.2" y="460.0" text-anchor="middle">10</text>
<text class="tm" x="251.1" y="460.0" text-anchor="middle">15</text>
<text class="tm" x="320.0" y="460.0" text-anchor="middle">20</text>
<text class="tm" x="388.9" y="460.0" text-anchor="middle">25</text>
<text class="tm" x="444.0" y="460.0" text-anchor="middle">29</text>
<text class="tm" x="258.0" y="478.0" text-anchor="middle">multipole ℓ</text>
<text class="tm" x="64.0" y="124.0" text-anchor="end">R_ℓ</text>
<line class="axis" x1="72.0" x2="444.0" y1="212.5" y2="212.5"/>
<circle class="o-A" cx="72.0" cy="362.3" r="4" data-l="2" data-v="0.011"><title>Sachs-Wolfe estimate, route A, ℓ = 2: 0.011</title></circle>
<circle class="o-A" cx="85.8" cy="395.9" r="4" data-l="3" data-v="0.004"><title>Sachs-Wolfe estimate, route A, ℓ = 3: 0.004</title></circle>
<circle class="o-A" cx="99.6" cy="320.3" r="4" data-l="4" data-v="0.039"><title>Sachs-Wolfe estimate, route A, ℓ = 4: 0.039</title></circle>
<circle class="o-A" cx="113.3" cy="362.3" r="4" data-l="5" data-v="0.011"><title>Sachs-Wolfe estimate, route A, ℓ = 5: 0.011</title></circle>
<circle class="o-A" cx="127.1" cy="299.9" r="4" data-l="6" data-v="0.072"><title>Sachs-Wolfe estimate, route A, ℓ = 6: 0.072</title></circle>
<circle class="o-A" cx="140.9" cy="312.0" r="4" data-l="7" data-v="0.05"><title>Sachs-Wolfe estimate, route A, ℓ = 7: 0.05</title></circle>
<circle class="o-A" cx="154.7" cy="300.8" r="4" data-l="8" data-v="0.07"><title>Sachs-Wolfe estimate, route A, ℓ = 8: 0.07</title></circle>
<circle class="o-A" cx="168.4" cy="274.0" r="4" data-l="9" data-v="0.157"><title>Sachs-Wolfe estimate, route A, ℓ = 9: 0.157</title></circle>
<circle class="o-A" cx="182.2" cy="313.4" r="4" data-l="10" data-v="0.048"><title>Sachs-Wolfe estimate, route A, ℓ = 10: 0.048</title></circle>
<circle class="o-A" cx="196.0" cy="262.8" r="4" data-l="11" data-v="0.22"><title>Sachs-Wolfe estimate, route A, ℓ = 11: 0.22</title></circle>
<circle class="o-A" cx="209.8" cy="264.2" r="4" data-l="12" data-v="0.211"><title>Sachs-Wolfe estimate, route A, ℓ = 12: 0.211</title></circle>
<circle class="o-A" cx="223.6" cy="292.9" r="4" data-l="13" data-v="0.089"><title>Sachs-Wolfe estimate, route A, ℓ = 13: 0.089</title></circle>
<circle class="o-A" cx="237.3" cy="242.1" r="4" data-l="14" data-v="0.41"><title>Sachs-Wolfe estimate, route A, ℓ = 14: 0.41</title></circle>
<circle class="o-A" cx="251.1" cy="249.1" r="4" data-l="15" data-v="0.332"><title>Sachs-Wolfe estimate, route A, ℓ = 15: 0.332</title></circle>
<circle class="o-A" cx="264.9" cy="295.2" r="4" data-l="16" data-v="0.083"><title>Sachs-Wolfe estimate, route A, ℓ = 16: 0.083</title></circle>
<circle class="o-A" cx="278.7" cy="227.5" r="4" data-l="17" data-v="0.637"><title>Sachs-Wolfe estimate, route A, ℓ = 17: 0.637</title></circle>
<circle class="o-A" cx="292.4" cy="226.2" r="4" data-l="18" data-v="0.662"><title>Sachs-Wolfe estimate, route A, ℓ = 18: 0.662</title></circle>
<circle class="o-A" cx="306.2" cy="295.2" r="4" data-l="19" data-v="0.083"><title>Sachs-Wolfe estimate, route A, ℓ = 19: 0.083</title></circle>
<circle class="o-A" cx="320.0" cy="231.9" r="4" data-l="20" data-v="0.557"><title>Sachs-Wolfe estimate, route A, ℓ = 20: 0.557</title></circle>
<circle class="o-A" cx="333.8" cy="205.9" r="4" data-l="21" data-v="1.221"><title>Sachs-Wolfe estimate, route A, ℓ = 21: 1.221</title></circle>
<circle class="o-A" cx="347.6" cy="214.2" r="4" data-l="22" data-v="0.949"><title>Sachs-Wolfe estimate, route A, ℓ = 22: 0.949</title></circle>
<circle class="o-A" cx="361.3" cy="248.4" r="4" data-l="23" data-v="0.339"><title>Sachs-Wolfe estimate, route A, ℓ = 23: 0.339</title></circle>
<circle class="o-A" cx="375.1" cy="242.8" r="4" data-l="24" data-v="0.402"><title>Sachs-Wolfe estimate, route A, ℓ = 24: 0.402</title></circle>
<circle class="o-A" cx="388.9" cy="198.2" r="4" data-l="25" data-v="1.536"><title>Sachs-Wolfe estimate, route A, ℓ = 25: 1.536</title></circle>
<circle class="o-A" cx="402.7" cy="179.4" r="4" data-l="26" data-v="2.706"><title>Sachs-Wolfe estimate, route A, ℓ = 26: 2.706</title></circle>
<circle class="o-A" cx="416.4" cy="176.0" r="4" data-l="27" data-v="2.999"><title>Sachs-Wolfe estimate, route A, ℓ = 27: 2.999</title></circle>
<circle class="o-A" cx="430.2" cy="182.3" r="4" data-l="28" data-v="2.48"><title>Sachs-Wolfe estimate, route A, ℓ = 28: 2.48</title></circle>
<circle class="o-A" cx="444.0" cy="194.6" r="4" data-l="29" data-v="1.716"><title>Sachs-Wolfe estimate, route A, ℓ = 29: 1.716</title></circle>
<path class="o-A" d="M72.0,281.8 L76.6,289.8 L67.4,289.8 Z" data-l="2" data-v="0.107"><title>estimate with the integrated term, route A, ℓ = 2: 0.107</title></path>
<path class="o-A" d="M85.8,263.6 L90.4,271.6 L81.2,271.6 Z" data-l="3" data-v="0.185"><title>estimate with the integrated term, route A, ℓ = 3: 0.185</title></path>
<path class="o-A" d="M99.6,245.3 L104.2,253.3 L95.0,253.3 Z" data-l="4" data-v="0.321"><title>estimate with the integrated term, route A, ℓ = 4: 0.321</title></path>
<path class="o-A" d="M113.3,258.3 L117.9,266.3 L108.7,266.3 Z" data-l="5" data-v="0.217"><title>estimate with the integrated term, route A, ℓ = 5: 0.217</title></path>
<path class="o-A" d="M127.1,282.4 L131.7,290.4 L122.5,290.4 Z" data-l="6" data-v="0.105"><title>estimate with the integrated term, route A, ℓ = 6: 0.105</title></path>
<path class="o-A" d="M140.9,281.1 L145.5,289.1 L136.3,289.1 Z" data-l="7" data-v="0.109"><title>estimate with the integrated term, route A, ℓ = 7: 0.109</title></path>
<path class="o-A" d="M154.7,249.2 L159.3,257.2 L150.1,257.2 Z" data-l="8" data-v="0.285"><title>estimate with the integrated term, route A, ℓ = 8: 0.285</title></path>
<path class="o-A" d="M168.4,238.2 L173.0,246.2 L163.8,246.2 Z" data-l="9" data-v="0.397"><title>estimate with the integrated term, route A, ℓ = 9: 0.397</title></path>
<path class="o-A" d="M182.2,268.0 L186.8,276.0 L177.6,276.0 Z" data-l="10" data-v="0.162"><title>estimate with the integrated term, route A, ℓ = 10: 0.162</title></path>
<path class="l-A" d="M72.0,298.1 L85.8,290.3 L99.6,255.4 L113.3,252.1 L127.1,283.2 L140.9,291.3 L154.7,270.2 L168.4,238.5 L182.2,250.7 L196.0,265.9 L209.8,257.3 L223.6,258.9 L237.3,228.2 L251.1,218.9 L264.9,251.5 L278.7,230.9 L292.4,202.8 L306.2,223.9 L320.0,240.6 L333.8,207.8 L347.6,201.9 L361.3,204.9 L375.1,222.8 L388.9,230.3 L402.7,205.7 L416.4,196.0 L430.2,196.0 L444.0,205.6"/>
<circle class="m-A" cx="72.0" cy="298.1" r="4" data-l="2" data-v="0.0759542256417935"><title>full transfer, route A, ℓ = 2: 0.07595</title></circle>
<circle class="m-A" cx="85.8" cy="290.3" r="4" data-l="3" data-v="0.0960414457944749"><title>full transfer, route A, ℓ = 3: 0.09604</title></circle>
<circle class="m-A" cx="99.6" cy="255.4" r="4" data-l="4" data-v="0.27454927994275274"><title>full transfer, route A, ℓ = 4: 0.2745</title></circle>
<circle class="m-A" cx="113.3" cy="252.1" r="4" data-l="5" data-v="0.3039644859101808"><title>full transfer, route A, ℓ = 5: 0.304</title></circle>
<circle class="m-A" cx="127.1" cy="283.2" r="4" data-l="6" data-v="0.11921765858187745"><title>full transfer, route A, ℓ = 6: 0.1192</title></circle>
<circle class="m-A" cx="140.9" cy="291.3" r="4" data-l="7" data-v="0.09322861905708457"><title>full transfer, route A, ℓ = 7: 0.09323</title></circle>
<circle class="m-A" cx="154.7" cy="270.2" r="4" data-l="8" data-v="0.17585169143141585"><title>full transfer, route A, ℓ = 8: 0.1759</title></circle>
<circle class="m-A" cx="168.4" cy="238.5" r="4" data-l="9" data-v="0.45660562057744336"><title>full transfer, route A, ℓ = 9: 0.4566</title></circle>
<circle class="m-A" cx="182.2" cy="250.7" r="4" data-l="10" data-v="0.3166166074874261"><title>full transfer, route A, ℓ = 10: 0.3166</title></circle>
<circle class="m-A" cx="196.0" cy="265.9" r="4" data-l="11" data-v="0.2006692551497396"><title>full transfer, route A, ℓ = 11: 0.2007</title></circle>
<circle class="m-A" cx="209.8" cy="257.3" r="4" data-l="12" data-v="0.25955646923786124"><title>full transfer, route A, ℓ = 12: 0.2596</title></circle>
<circle class="m-A" cx="223.6" cy="258.9" r="4" data-l="13" data-v="0.24726377691561655"><title>full transfer, route A, ℓ = 13: 0.2473</title></circle>
<circle class="m-A" cx="237.3" cy="228.2" r="4" data-l="14" data-v="0.623461844983725"><title>full transfer, route A, ℓ = 14: 0.6235</title></circle>
<circle class="m-A" cx="251.1" cy="218.9" r="4" data-l="15" data-v="0.825049676326595"><title>full transfer, route A, ℓ = 15: 0.825</title></circle>
<circle class="m-A" cx="264.9" cy="251.5" r="4" data-l="16" data-v="0.30942372057952267"><title>full transfer, route A, ℓ = 16: 0.3094</title></circle>
<circle class="m-A" cx="278.7" cy="230.9" r="4" data-l="17" data-v="0.5744489847877378"><title>full transfer, route A, ℓ = 17: 0.5744</title></circle>
<circle class="m-A" cx="292.4" cy="202.8" r="4" data-l="18" data-v="1.33733417393089"><title>full transfer, route A, ℓ = 18: 1.337</title></circle>
<circle class="m-A" cx="306.2" cy="223.9" r="4" data-l="19" data-v="0.7105861582295208"><title>full transfer, route A, ℓ = 19: 0.7106</title></circle>
<circle class="m-A" cx="320.0" cy="240.6" r="4" data-l="20" data-v="0.4295222591750139"><title>full transfer, route A, ℓ = 20: 0.4295</title></circle>
<circle class="m-A" cx="333.8" cy="207.8" r="4" data-l="21" data-v="1.150372055559839"><title>full transfer, route A, ℓ = 21: 1.15</title></circle>
<circle class="m-A" cx="347.6" cy="201.9" r="4" data-l="22" data-v="1.3744645865658078"><title>full transfer, route A, ℓ = 22: 1.374</title></circle>
<circle class="m-A" cx="361.3" cy="204.9" r="4" data-l="23" data-v="1.2587341591639383"><title>full transfer, route A, ℓ = 23: 1.259</title></circle>
<circle class="m-A" cx="375.1" cy="222.8" r="4" data-l="24" data-v="0.7343642379237323"><title>full transfer, route A, ℓ = 24: 0.7344</title></circle>
<circle class="m-A" cx="388.9" cy="230.3" r="4" data-l="25" data-v="0.584879139861081"><title>full transfer, route A, ℓ = 25: 0.5849</title></circle>
<circle class="m-A" cx="402.7" cy="205.7" r="4" data-l="26" data-v="1.2274265017925696"><title>full transfer, route A, ℓ = 26: 1.227</title></circle>
<circle class="m-A" cx="416.4" cy="196.0" r="4" data-l="27" data-v="1.6408141585159408"><title>full transfer, route A, ℓ = 27: 1.641</title></circle>
<circle class="m-A" cx="430.2" cy="196.0" r="4" data-l="28" data-v="1.6422059080745066"><title>full transfer, route A, ℓ = 28: 1.642</title></circle>
<circle class="m-A" cx="444.0" cy="205.6" r="4" data-l="29" data-v="1.2318773557858638"><title>full transfer, route A, ℓ = 29: 1.232</title></circle>
<text class="t1" x="508.0" y="112.0">Route B, R = 19700 Mpc</text>
<rect class="band" x="508.0" y="209.3" width="372.0" height="6.7"/>
<line class="grid" x1="508.0" x2="880.0" y1="442.0" y2="442.0"/>
<text class="tm" x="500.0" y="446.0" text-anchor="end">0.001</text>
<line class="grid" x1="508.0" x2="880.0" y1="365.5" y2="365.5"/>
<text class="tm" x="500.0" y="369.5" text-anchor="end">0.01</text>
<line class="grid" x1="508.0" x2="880.0" y1="289.0" y2="289.0"/>
<text class="tm" x="500.0" y="293.0" text-anchor="end">0.1</text>
<line class="grid" x1="508.0" x2="880.0" y1="212.5" y2="212.5"/>
<text class="tm" x="500.0" y="216.5" text-anchor="end">1</text>
<line class="grid" x1="508.0" x2="880.0" y1="136.0" y2="136.0"/>
<text class="tm" x="500.0" y="140.0" text-anchor="end">10</text>
<line class="axis" x1="508.0" x2="880.0" y1="442.0" y2="442.0"/>
<text class="tm" x="508.0" y="460.0" text-anchor="middle">2</text>
<text class="tm" x="549.3" y="460.0" text-anchor="middle">5</text>
<text class="tm" x="618.2" y="460.0" text-anchor="middle">10</text>
<text class="tm" x="687.1" y="460.0" text-anchor="middle">15</text>
<text class="tm" x="756.0" y="460.0" text-anchor="middle">20</text>
<text class="tm" x="824.9" y="460.0" text-anchor="middle">25</text>
<text class="tm" x="880.0" y="460.0" text-anchor="middle">29</text>
<text class="tm" x="694.0" y="478.0" text-anchor="middle">multipole ℓ</text>
<line class="axis" x1="508.0" x2="880.0" y1="212.5" y2="212.5"/>
<circle class="o-B" cx="508.0" cy="344.2" r="4" data-l="2" data-v="0.019"><title>Sachs-Wolfe estimate, route B, ℓ = 2: 0.019</title></circle>
<circle class="o-B" cx="521.8" cy="261.9" r="4" data-l="3" data-v="0.226"><title>Sachs-Wolfe estimate, route B, ℓ = 3: 0.226</title></circle>
<circle class="o-B" cx="535.6" cy="256.4" r="4" data-l="4" data-v="0.267"><title>Sachs-Wolfe estimate, route B, ℓ = 4: 0.267</title></circle>
<circle class="o-B" cx="549.3" cy="275.1" r="4" data-l="5" data-v="0.152"><title>Sachs-Wolfe estimate, route B, ℓ = 5: 0.152</title></circle>
<circle class="o-B" cx="563.1" cy="220.4" r="4" data-l="6" data-v="0.789"><title>Sachs-Wolfe estimate, route B, ℓ = 6: 0.789</title></circle>
<circle class="o-B" cx="576.9" cy="196.0" r="4" data-l="7" data-v="1.643"><title>Sachs-Wolfe estimate, route B, ℓ = 7: 1.643</title></circle>
<circle class="o-B" cx="590.7" cy="193.9" r="4" data-l="8" data-v="1.753"><title>Sachs-Wolfe estimate, route B, ℓ = 8: 1.753</title></circle>
<circle class="o-B" cx="604.4" cy="211.7" r="4" data-l="9" data-v="1.024"><title>Sachs-Wolfe estimate, route B, ℓ = 9: 1.024</title></circle>
<circle class="o-B" cx="618.2" cy="233.8" r="4" data-l="10" data-v="0.527"><title>Sachs-Wolfe estimate, route B, ℓ = 10: 0.527</title></circle>
<circle class="o-B" cx="632.0" cy="222.0" r="4" data-l="11" data-v="0.751"><title>Sachs-Wolfe estimate, route B, ℓ = 11: 0.751</title></circle>
<circle class="o-B" cx="645.8" cy="214.1" r="4" data-l="12" data-v="0.952"><title>Sachs-Wolfe estimate, route B, ℓ = 12: 0.952</title></circle>
<circle class="o-B" cx="659.6" cy="213.0" r="4" data-l="13" data-v="0.985"><title>Sachs-Wolfe estimate, route B, ℓ = 13: 0.985</title></circle>
<circle class="o-B" cx="673.3" cy="206.2" r="4" data-l="14" data-v="1.21"><title>Sachs-Wolfe estimate, route B, ℓ = 14: 1.21</title></circle>
<circle class="o-B" cx="687.1" cy="204.1" r="4" data-l="15" data-v="1.289"><title>Sachs-Wolfe estimate, route B, ℓ = 15: 1.289</title></circle>
<circle class="o-B" cx="700.9" cy="212.4" r="4" data-l="16" data-v="1.004"><title>Sachs-Wolfe estimate, route B, ℓ = 16: 1.004</title></circle>
<circle class="o-B" cx="714.7" cy="221.4" r="4" data-l="17" data-v="0.765"><title>Sachs-Wolfe estimate, route B, ℓ = 17: 0.765</title></circle>
<circle class="o-B" cx="728.4" cy="219.2" r="4" data-l="18" data-v="0.818"><title>Sachs-Wolfe estimate, route B, ℓ = 18: 0.818</title></circle>
<circle class="o-B" cx="742.2" cy="212.3" r="4" data-l="19" data-v="1.006"><title>Sachs-Wolfe estimate, route B, ℓ = 19: 1.006</title></circle>
<circle class="o-B" cx="756.0" cy="209.4" r="4" data-l="20" data-v="1.097"><title>Sachs-Wolfe estimate, route B, ℓ = 20: 1.097</title></circle>
<circle class="o-B" cx="769.8" cy="209.9" r="4" data-l="21" data-v="1.082"><title>Sachs-Wolfe estimate, route B, ℓ = 21: 1.082</title></circle>
<circle class="o-B" cx="783.6" cy="209.5" r="4" data-l="22" data-v="1.095"><title>Sachs-Wolfe estimate, route B, ℓ = 22: 1.095</title></circle>
<circle class="o-B" cx="797.3" cy="211.3" r="4" data-l="23" data-v="1.037"><title>Sachs-Wolfe estimate, route B, ℓ = 23: 1.037</title></circle>
<circle class="o-B" cx="811.1" cy="217.3" r="4" data-l="24" data-v="0.866"><title>Sachs-Wolfe estimate, route B, ℓ = 24: 0.866</title></circle>
<circle class="o-B" cx="824.9" cy="217.9" r="4" data-l="25" data-v="0.85"><title>Sachs-Wolfe estimate, route B, ℓ = 25: 0.85</title></circle>
<circle class="o-B" cx="838.7" cy="211.9" r="4" data-l="26" data-v="1.017"><title>Sachs-Wolfe estimate, route B, ℓ = 26: 1.017</title></circle>
<circle class="o-B" cx="852.4" cy="209.4" r="4" data-l="27" data-v="1.099"><title>Sachs-Wolfe estimate, route B, ℓ = 27: 1.099</title></circle>
<circle class="o-B" cx="866.2" cy="210.4" r="4" data-l="28" data-v="1.064"><title>Sachs-Wolfe estimate, route B, ℓ = 28: 1.064</title></circle>
<circle class="o-B" cx="880.0" cy="211.5" r="4" data-l="29" data-v="1.03"><title>Sachs-Wolfe estimate, route B, ℓ = 29: 1.03</title></circle>
<path class="o-B" d="M508.0,241.8 L512.6,249.8 L503.4,249.8 Z" data-l="2" data-v="0.356"><title>estimate with the integrated term, route B, ℓ = 2: 0.356</title></path>
<path class="o-B" d="M521.8,222.0 L526.4,230.0 L517.2,230.0 Z" data-l="3" data-v="0.647"><title>estimate with the integrated term, route B, ℓ = 3: 0.647</title></path>
<path class="o-B" d="M535.6,225.8 L540.2,233.8 L531.0,233.8 Z" data-l="4" data-v="0.577"><title>estimate with the integrated term, route B, ℓ = 4: 0.577</title></path>
<path class="o-B" d="M549.3,247.1 L553.9,255.1 L544.7,255.1 Z" data-l="5" data-v="0.304"><title>estimate with the integrated term, route B, ℓ = 5: 0.304</title></path>
<path class="o-B" d="M563.1,217.2 L567.7,225.2 L558.5,225.2 Z" data-l="6" data-v="0.747"><title>estimate with the integrated term, route B, ℓ = 6: 0.747</title></path>
<path class="o-B" d="M576.9,194.2 L581.5,202.2 L572.3,202.2 Z" data-l="7" data-v="1.494"><title>estimate with the integrated term, route B, ℓ = 7: 1.494</title></path>
<path class="o-B" d="M590.7,190.7 L595.3,198.7 L586.1,198.7 Z" data-l="8" data-v="1.658"><title>estimate with the integrated term, route B, ℓ = 8: 1.658</title></path>
<path class="o-B" d="M604.4,205.5 L609.0,213.5 L599.8,213.5 Z" data-l="9" data-v="1.061"><title>estimate with the integrated term, route B, ℓ = 9: 1.061</title></path>
<path class="o-B" d="M618.2,224.1 L622.8,232.1 L613.6,232.1 Z" data-l="10" data-v="0.607"><title>estimate with the integrated term, route B, ℓ = 10: 0.607</title></path>
<path class="l-B" d="M508.0,253.5 L521.8,229.6 L535.6,228.2 L549.3,249.4 L563.1,225.6 L576.9,203.4 L590.7,196.1 L604.4,204.9 L618.2,225.9 L632.0,222.9 L645.8,213.0 L659.6,215.2 L673.3,211.7 L687.1,205.2 L700.9,208.1 L714.7,215.7 L728.4,218.5 L742.2,215.2 L756.0,210.9 L769.8,211.2 L783.6,211.9 L797.3,209.4 L811.1,211.5 L824.9,216.9 L838.7,215.0 L852.4,211.3 L866.2,211.5 L880.0,212.0"/>
<circle class="m-B" cx="508.0" cy="253.5" r="4" data-l="2" data-v="0.291200742244517"><title>full transfer, route B, ℓ = 2: 0.2912</title></circle>
<circle class="m-B" cx="521.8" cy="229.6" r="4" data-l="3" data-v="0.5983460914682528"><title>full transfer, route B, ℓ = 3: 0.5983</title></circle>
<circle class="m-B" cx="535.6" cy="228.2" r="4" data-l="4" data-v="0.6227190332905285"><title>full transfer, route B, ℓ = 4: 0.6227</title></circle>
<circle class="m-B" cx="549.3" cy="249.4" r="4" data-l="5" data-v="0.3295155094585001"><title>full transfer, route B, ℓ = 5: 0.3295</title></circle>
<circle class="m-B" cx="563.1" cy="225.6" r="4" data-l="6" data-v="0.6745592485803831"><title>full transfer, route B, ℓ = 6: 0.6746</title></circle>
<circle class="m-B" cx="576.9" cy="203.4" r="4" data-l="7" data-v="1.3167873984192162"><title>full transfer, route B, ℓ = 7: 1.317</title></circle>
<circle class="m-B" cx="590.7" cy="196.1" r="4" data-l="8" data-v="1.6371415583337172"><title>full transfer, route B, ℓ = 8: 1.637</title></circle>
<circle class="m-B" cx="604.4" cy="204.9" r="4" data-l="9" data-v="1.2557658990862208"><title>full transfer, route B, ℓ = 9: 1.256</title></circle>
<circle class="m-B" cx="618.2" cy="225.9" r="4" data-l="10" data-v="0.6674584892826124"><title>full transfer, route B, ℓ = 10: 0.6675</title></circle>
<circle class="m-B" cx="632.0" cy="222.9" r="4" data-l="11" data-v="0.7302065071671696"><title>full transfer, route B, ℓ = 11: 0.7302</title></circle>
<circle class="m-B" cx="645.8" cy="213.0" r="4" data-l="12" data-v="0.9857284740258988"><title>full transfer, route B, ℓ = 12: 0.9857</title></circle>
<circle class="m-B" cx="659.6" cy="215.2" r="4" data-l="13" data-v="0.922820185709201"><title>full transfer, route B, ℓ = 13: 0.9228</title></circle>
<circle class="m-B" cx="673.3" cy="211.7" r="4" data-l="14" data-v="1.0231175418516365"><title>full transfer, route B, ℓ = 14: 1.023</title></circle>
<circle class="m-B" cx="687.1" cy="205.2" r="4" data-l="15" data-v="1.2448717774629448"><title>full transfer, route B, ℓ = 15: 1.245</title></circle>
<circle class="m-B" cx="700.9" cy="208.1" r="4" data-l="16" data-v="1.140240277406682"><title>full transfer, route B, ℓ = 16: 1.14</title></circle>
<circle class="m-B" cx="714.7" cy="215.7" r="4" data-l="17" data-v="0.9088354464823095"><title>full transfer, route B, ℓ = 17: 0.9088</title></circle>
<circle class="m-B" cx="728.4" cy="218.5" r="4" data-l="18" data-v="0.8357530872980757"><title>full transfer, route B, ℓ = 18: 0.8358</title></circle>
<circle class="m-B" cx="742.2" cy="215.2" r="4" data-l="19" data-v="0.9227499799982024"><title>full transfer, route B, ℓ = 19: 0.9227</title></circle>
<circle class="m-B" cx="756.0" cy="210.9" r="4" data-l="20" data-v="1.0482206429113858"><title>full transfer, route B, ℓ = 20: 1.048</title></circle>
<circle class="m-B" cx="769.8" cy="211.2" r="4" data-l="21" data-v="1.0388202135384492"><title>full transfer, route B, ℓ = 21: 1.039</title></circle>
<circle class="m-B" cx="783.6" cy="211.9" r="4" data-l="22" data-v="1.0179990759337556"><title>full transfer, route B, ℓ = 22: 1.018</title></circle>
<circle class="m-B" cx="797.3" cy="209.4" r="4" data-l="23" data-v="1.0966246011185314"><title>full transfer, route B, ℓ = 23: 1.097</title></circle>
<circle class="m-B" cx="811.1" cy="211.5" r="4" data-l="24" data-v="1.0294571481863144"><title>full transfer, route B, ℓ = 24: 1.029</title></circle>
<circle class="m-B" cx="824.9" cy="216.9" r="4" data-l="25" data-v="0.8771299396936821"><title>full transfer, route B, ℓ = 25: 0.8771</title></circle>
<circle class="m-B" cx="838.7" cy="215.0" r="4" data-l="26" data-v="0.9283899955832144"><title>full transfer, route B, ℓ = 26: 0.9284</title></circle>
<circle class="m-B" cx="852.4" cy="211.3" r="4" data-l="27" data-v="1.0373535310145132"><title>full transfer, route B, ℓ = 27: 1.037</title></circle>
<circle class="m-B" cx="866.2" cy="211.5" r="4" data-l="28" data-v="1.0312531940215264"><title>full transfer, route B, ℓ = 28: 1.031</title></circle>
<circle class="m-B" cx="880.0" cy="212.0" r="4" data-l="29" data-v="1.0153093364583483"><title>full transfer, route B, ℓ = 29: 1.015</title></circle>
</svg>
